<svg width="500" height="500" viewBox="0 0 500 500" fill="none" xmlns="http://www.w3.org/2000/svg">
    <path d="M453.681 275.035C468.264 262.535 488.75 250.382 500 246.007C498.264 244.896 495.556 243.299 492.5 241.562C477.986 246.354 461.042 256.979 445.903 268.993C448.472 270.937 451.181 272.951 453.681 275.035Z" fill="white"/>
    <path d="M447.014 241.076C444.861 240.035 442.5 239.063 440.694 238.229C435.208 240.938 428.055 245.035 419.028 251.493C420.972 252.535 423.055 253.785 425.278 255.035C432.222 249.896 439.236 245.035 447.014 241.076Z" fill="white"/>
    <path d="M460 235.104C457.361 233.646 448.194 230.243 441.875 228.785C440 229.479 437.361 230.521 435.555 231.285C437.847 231.91 446.389 234.201 453.68 237.882C455.555 236.979 458.194 235.868 460 235.104Z" fill="white"/>
    <path d="M428.958 234.201C420.833 237.951 412.292 243.09 407.639 246.076C409.306 246.84 410.972 247.465 413.264 248.576C423.542 241.632 431.597 237.396 434.792 236.007C432.5 235.174 430.347 234.618 428.958 234.201Z" fill="white"/>
    <path d="M466.111 232.951C467.986 232.326 470.139 231.771 472.014 231.215C466.597 228.924 459.791 226.493 453.68 224.965C452.708 225.243 449.791 226.007 447.778 226.632C449.861 227.257 456.736 228.854 466.111 232.951ZM431.875 259.063C434.097 260.382 436.458 262.188 438.75 263.715C453.958 251.91 468.958 242.813 485.416 237.674C483.125 236.493 481.111 235.451 478.541 234.201C468.68 236.701 451.805 243.438 431.875 259.063Z" fill="white"/>
    <path d="M0 271.424H11.1111C16.7361 271.424 19.375 268.507 19.375 264.41C19.375 261.076 17.6389 258.854 14.0278 258.16C17.2222 257.396 18.6806 255.451 18.6806 252.604C18.6806 248.993 16.0417 246.076 10.4167 246.076H0.0694444V271.424H0ZM9.65278 260.66C11.7361 260.66 13.1944 261.701 13.1944 263.785C13.1944 266.007 11.8056 266.91 9.65278 266.91H6.04167V260.59H9.65278V260.66ZM8.95833 250.521C11.0417 250.521 12.5 251.424 12.5 253.507C12.5 255.59 11.1111 256.493 8.95833 256.493H6.04167V250.521H8.95833ZM41.8055 246.007H35.5555L26.0417 271.424H32.3611L34.0972 266.146H43.2639L45 271.424H51.3889L41.8055 246.007ZM38.6805 252.118L41.6667 261.493H35.5555L38.6805 252.118ZM83.0555 246.007H77.2916V263.021L66.4583 246.007H60V271.424H65.7639V254.479L76.5972 271.424H83.0555V246.007ZM109.653 271.424L101.319 258.507V271.424H95.1389V246.007H101.319V258.229L109.236 246.007H116.111L107.778 258.229L116.875 271.424H109.653ZM138.75 258.715C138.75 263.785 141.806 266.91 145.764 266.91C149.722 266.91 152.778 263.785 152.778 258.715C152.778 253.646 149.722 250.521 145.764 250.521C141.806 250.521 138.75 253.646 138.75 258.715ZM132.222 258.715C132.292 251.285 137.5 245.451 145.764 245.451C154.028 245.451 159.236 251.285 159.306 258.715C159.236 266.146 154.028 271.979 145.764 271.979C137.5 271.979 132.292 266.146 132.222 258.715ZM167.778 271.424H173.958V261.424H182.014V256.562H173.958V250.868H183.681L184.792 246.007H167.778V271.424ZM213.611 246.007H207.361L197.847 271.424H204.167L205.903 266.146H215.069L216.806 271.424H223.194L213.611 246.007ZM210.486 252.118L213.472 261.493H207.361L210.486 252.118ZM259.861 246.007H252.639L246.042 259.757L239.444 246.007H232.222V271.424H237.778V254.41L245.972 271.424L254.167 254.41V271.424H259.93L259.861 246.007ZM271.875 271.424H289.236V266.562H278.055V260.868H286.875V256.146H278.055V250.868H288.264L289.375 246.007H271.875V271.424ZM312.778 271.424H319.514L313.194 260.66C316.667 259.687 318.333 257.257 318.333 253.715C318.333 249.132 315.555 246.076 309.305 246.076H299.514V271.493H305.555V261.493H307.222L312.778 271.424ZM308.125 250.729C310.694 250.729 312.014 251.84 312.014 253.993C312.014 256.146 310.694 257.257 308.125 257.257H305.486V250.729H308.125ZM328.75 271.424H334.93V246.076H328.75V271.424ZM365.347 264.618C362.986 266.285 360.903 266.84 358.75 266.84C354.028 266.84 350.694 263.576 350.694 258.715C350.694 253.854 353.958 250.59 358.542 250.59C360.625 250.59 362.708 251.146 365 252.812V247.049C362.917 245.868 360.486 245.382 357.778 245.382C349.375 245.382 344.097 251.215 344.028 258.646C344.097 266.146 349.236 271.91 357.778 271.91C360.625 271.91 363.055 271.423 365.278 270.243V264.618H365.347ZM387.986 246.007H381.736L372.222 271.424H378.542L380.278 266.146H389.444L391.18 271.424H397.569L387.986 246.007ZM384.861 252.118L387.847 261.493H381.736L384.861 252.118Z" fill="white"/>
</svg>
