<svg width="305" height="61" viewBox="0 0 305 61" fill="none" xmlns="http://www.w3.org/2000/svg">
    <g clip-path="url(#clip0_55_6811)">
        <path fill-rule="evenodd" clip-rule="evenodd" d="M55.4619 60.4359H65.7511L73.8202 30.0471H63.531L55.4619 60.4359Z" fill="white"/>
        <path fill-rule="evenodd" clip-rule="evenodd" d="M108.322 60.4359H118.611L126.68 30.0471H116.391L108.322 60.4359Z" fill="white"/>
        <path fill-rule="evenodd" clip-rule="evenodd" d="M161.182 60.4359H171.471L179.54 30.0471H169.251L161.182 60.4359Z" fill="white"/>
        <path fill-rule="evenodd" clip-rule="evenodd" d="M98.7261 40.4569H109.026C110.392 33.6273 106.016 30.1067 95.92 30.1067C84.2438 30.1067 76.3092 35.8785 73.6482 45.8978C71.2344 54.9786 76.0081 60.5117 86.9962 60.5117C98.1025 60.5117 104.666 57.0237 107.473 49.2122H97.1457C95.7103 52.6515 93.0009 54.447 89.3508 54.447C84.3674 54.447 82.416 51.2573 83.9481 45.4909C85.5609 39.475 89.3239 36.1606 94.3288 36.1606C97.4897 36.1606 98.9788 37.5927 98.7423 40.4569" fill="white"/>
        <path fill-rule="evenodd" clip-rule="evenodd" d="M151.602 40.4569H161.902C163.268 33.6273 158.892 30.1067 148.796 30.1067C137.12 30.1067 129.185 35.8785 126.524 45.8978C124.11 54.9786 128.884 60.5117 139.872 60.5117C150.979 60.5117 157.542 57.0237 160.343 49.2122H150.006C148.57 52.6515 145.861 54.447 142.211 54.447C137.227 54.447 135.276 51.2573 136.808 45.4909C138.421 39.475 142.184 36.1606 147.189 36.1606C150.35 36.1606 151.839 37.5927 151.602 40.4569Z" fill="white"/>
        <path fill-rule="evenodd" clip-rule="evenodd" d="M15.708 13.1927C29.4914 -0.591304 46.1563 -4.16613 52.8008 5.26731C59.4453 14.7007 53.6287 33.611 39.8452 47.4004C26.0617 61.1898 9.39142 64.7593 2.75234 55.3258C-3.88675 45.8924 1.92447 26.9984 15.708 13.1927Z" fill="#F99D27"/>
        <path fill-rule="evenodd" clip-rule="evenodd" d="M24.8306 5.84224C23.2254 7.04838 21.7041 8.36423 20.2774 9.78053C8.198 21.7852 3.1824 38.287 9.12801 46.527C15.2618 54.7779 30.1258 51.778 42.3933 39.5889C48.9894 33.1173 53.4513 25.5228 55.2952 18.4925C55.8327 13.3337 55.107 8.72815 52.7847 5.26723C47.4895 -2.04517 36.152 -1.48101 24.8306 5.8097" fill="#B02A30"/>
        <path fill-rule="evenodd" clip-rule="evenodd" d="M31.6632 54.203C25.2123 59.0852 18.5409 61.5154 12.0363 60.501C14.7671 60.6421 16.9712 57.588 18.7775 53.4815C20.3982 49.6872 21.6756 45.7528 22.5943 41.7264C23.8791 35.9491 23.9758 31.8156 23.3254 30.9313C22.2502 29.4613 19.7075 29.8464 16.8745 31.4738C15.5198 32.2333 13.7135 31.7288 15.8477 29.1195C17.9819 26.5103 26.5992 20.1472 29.6849 19.1599C33.0717 18.1726 36.9422 19.5179 35.6359 23.2663C34.7059 25.9786 22.8254 57.4415 31.6686 54.1867L31.6632 54.203ZM41.3826 5.39758C42.9953 7.02497 42.0116 10.5618 39.2753 13.3555C36.539 16.1492 32.9211 17.104 31.3675 15.5254C29.7064 13.898 30.6902 10.3286 33.448 7.51319C36.2057 4.6978 39.8236 3.84071 41.3772 5.41386L41.3826 5.39758Z" fill="white"/>
        <path fill-rule="evenodd" clip-rule="evenodd" d="M194.996 55.6349L197.35 46.7711H204.091C209.279 46.7711 211.58 47.6987 210.628 51.2898C209.752 54.5771 207.215 55.6295 202.527 55.6295H195.001L194.996 55.6349ZM200.549 34.7392H206.946C211.757 34.7392 213.988 35.3251 213.176 38.3683C212.365 41.4115 209.784 42.1656 204.812 42.1656H198.576L200.549 34.7392ZM187.228 60.4845H202.661C207.053 60.4845 210.322 60.1428 213.456 57.9512C215.556 56.5199 217.082 54.3788 217.757 51.9136C218.869 47.7366 216.972 44.9484 212.257 44.2757C216.708 43.4295 219.509 41.0698 220.466 37.4787C221.202 34.6958 220.6 32.7104 218.617 31.3597C217.004 30.2748 214.316 30.0903 210.671 30.0903H195.291L187.228 60.4845Z" fill="white"/>
        <path fill-rule="evenodd" clip-rule="evenodd" d="M237.104 50.6932L237.007 51.0783C236.589 52.8983 235.563 54.5177 234.102 55.6645C232.64 56.8114 230.832 57.4158 228.981 57.3763C226.175 57.3763 225.003 56.2914 225.541 54.2517C226.282 51.4689 228.702 50.704 233.174 50.704H237.104V50.6932ZM234.733 60.49H240.926C241.138 58.8927 241.46 57.3122 241.888 55.7598L244.141 47.2756C245.635 41.6611 242.883 38.7915 235.894 38.7915C229.164 38.7915 224.772 41.1567 223.423 45.1275H229.357C230.137 43.1421 231.846 42.2144 234.69 42.2144C237.867 42.2144 238.991 43.6466 238.179 46.7277L238.077 47.1075H234.814C225.61 47.1075 220.643 48.7945 219.224 54.1595C218.122 58.2931 220.708 61 226.186 61C229.55 61.0581 232.813 59.8361 235.325 57.577L234.733 60.49Z" fill="white"/>
        <path fill-rule="evenodd" clip-rule="evenodd" d="M246.237 60.4901H252.473L255.355 49.6408C255.845 47.7696 256.922 46.1086 258.424 44.906C259.927 43.7034 261.775 43.0237 263.693 42.9685C267.332 42.9685 268.601 45.1384 267.456 49.4293L264.52 60.4901H270.627L274.079 47.471C275.535 41.9866 272.778 38.8187 266.714 38.8187C264.872 38.7685 263.042 39.1195 261.347 39.8478C259.652 40.5761 258.133 41.6646 256.892 43.039L257.639 39.2852H251.484C250.85 42.6195 250.427 44.6881 250.215 45.491L246.237 60.4738" fill="white"/>
        <path fill-rule="evenodd" clip-rule="evenodd" d="M276.116 60.4847H282.185L285.223 49.0496L293.394 60.4847H301.715L292.512 48.3715L305 39.3015H297.178L285.545 47.8291L290.254 30.0959H284.185L276.116 60.4847Z" fill="white"/>
    </g>
    <defs>
        <clipPath id="clip0_55_6811">
            <rect width="305" height="61" fill="white"/>
        </clipPath>
    </defs>
</svg>
