<svg width="160" height="57" viewBox="0 0 160 57" fill="none" xmlns="http://www.w3.org/2000/svg">
    <path fill-rule="evenodd" clip-rule="evenodd" d="M54.9035 28.3902C54.8915 23.0417 53.3174 17.8132 50.3744 13.347C47.4315 8.88093 43.248 5.37178 38.338 3.25078C33.428 1.12977 28.0053 0.489304 22.7362 1.40806C17.4672 2.32682 12.5813 4.76479 8.67884 8.4224C4.77642 12.08 2.02749 16.7979 0.769777 21.9965C-0.487933 27.1951 -0.199629 32.6479 1.59928 37.6848C3.39819 42.7218 6.62933 47.1235 10.8957 50.3492C15.1621 53.5749 20.2778 55.4841 25.6144 55.842V34.5819C24.1086 34.1531 22.8086 33.1944 21.9541 31.8825C21.0996 30.5706 20.7481 28.994 20.9646 27.4434C21.1811 25.8928 21.9508 24.4728 23.132 23.4451C24.3131 22.4174 25.8259 21.8513 27.3916 21.8513C28.9572 21.8513 30.4701 22.4174 31.6512 23.4451C32.8323 24.4728 33.6021 25.8928 33.8186 27.4434C34.035 28.994 33.6836 30.5706 32.8291 31.8825C31.9746 33.1944 30.6746 34.1531 29.1688 34.5819V55.842C36.1411 55.3877 42.6795 52.2982 47.4576 47.2001C52.2356 42.1021 54.8955 35.3774 54.8975 28.3902H54.9035Z" fill="#00B6F0"/>
    <path fill-rule="evenodd" clip-rule="evenodd" d="M91.8251 17.0267L96.8169 7.04612C87.3686 -1.78873 69.4192 -1.39781 63.5674 11.2561C62.0067 14.627 62.0638 18.3618 63.5493 22.2891C64.268 24.1836 65.5611 26.5472 67.6119 28.2402C68.6614 29.1062 72.6879 31.1029 75.9446 32.5794C78.9938 33.9596 83.1887 34.952 85.1132 37.6734C87.3144 40.7858 85.9552 44.6288 80.8492 45.3295C77.9894 45.7204 73.7314 44.5326 67.3864 39.4115L60.6746 48.1952C82.025 66.8092 101.721 50.5107 97.1055 36.0255C95.9328 32.3479 93.5181 29.5182 90.529 27.3591C85.9071 24.0182 81.0807 23.113 77.8571 21.7087C71.8189 19.0775 72.6729 11.668 81.0446 12.1221C86.3432 12.4078 88.0452 13.9264 91.8251 17.0417V17.0267Z" fill="white" stroke="black" stroke-width="0.0416863" stroke-miterlimit="22.93"/>
    <path fill-rule="evenodd" clip-rule="evenodd" d="M103.554 1H124.249C131.208 1 139.366 7.04427 139.366 14.2643C139.366 15.9302 139.48 17.1812 139.366 19.1178C139.14 22.9488 135.607 27.2369 133.331 27.2369C136.873 27.2369 140.415 32.3159 141.285 35.8282C143.389 44.3654 138.912 56.52 124.249 56.52H103.554V1ZM114.654 11.1339H122.773C125.825 11.1339 128.321 13.723 128.321 16.8925V17.7165C128.321 20.4229 126.183 22.6481 123.567 22.6481H120.226V32.9173H124.135C127.674 32.9173 130.567 35.9244 130.567 39.5901C130.567 43.2587 127.674 46.2628 124.135 46.2628H114.654V11.1339Z" fill="white" stroke="black" stroke-width="0.0416863" stroke-miterlimit="22.93"/>
    <path fill-rule="evenodd" clip-rule="evenodd" d="M147.546 1H159.25V56.5291H147.546V1Z" fill="white" stroke="black" stroke-width="0.0416863" stroke-miterlimit="22.93"/>
</svg>
