<svg width="41" height="40" viewBox="0 0 41 40" fill="none" xmlns="http://www.w3.org/2000/svg">
    <path d="M20.7001 21.3C20.5834 21.2833 20.4334 21.2833 20.3001 21.3C17.3668 21.2 15.0334 18.8 15.0334 15.85C15.0334 12.8333 17.4668 10.3833 20.5001 10.3833C23.5168 10.3833 25.9668 12.8333 25.9668 15.85C25.9501 18.8 23.6334 21.2 20.7001 21.3Z" stroke="#171717" stroke-width="1.5" stroke-linecap="round" stroke-linejoin="round"/>
    <path d="M31.7333 32.3001C28.7666 35.0168 24.8333 36.6668 20.4999 36.6668C16.1666 36.6668 12.2333 35.0168 9.2666 32.3001C9.43327 30.7334 10.4333 29.2001 12.2166 28.0001C16.7833 24.9668 24.2499 24.9668 28.7833 28.0001C30.5666 29.2001 31.5666 30.7334 31.7333 32.3001Z" stroke="#171717" stroke-width="1.5" stroke-linecap="round" stroke-linejoin="round"/>
    <path d="M20.4999 36.6668C29.7047 36.6668 37.1666 29.2049 37.1666 20.0002C37.1666 10.7954 29.7047 3.3335 20.4999 3.3335C11.2952 3.3335 3.83325 10.7954 3.83325 20.0002C3.83325 29.2049 11.2952 36.6668 20.4999 36.6668Z" stroke="#171717" stroke-width="1.5" stroke-linecap="round" stroke-linejoin="round"/>
</svg>