<svg width="25" height="25" viewBox="0 0 25 25" fill="none" xmlns="http://www.w3.org/2000/svg">
<path d="M2.40002 10.9452L22.4 10.9452" stroke="#171717" stroke-width="1.5" stroke-miterlimit="10" stroke-linecap="round" stroke-linejoin="round"/>
<path d="M11.96 21.4451H6.84998C3.29998 21.4451 2.40002 20.5651 2.40002 17.0551L2.40002 8.83514C2.40002 5.65514 3.13999 4.63514 5.92999 4.47514C6.20999 4.46514 6.51998 4.45514 6.84998 4.45514L17.96 4.45514C21.51 4.45514 22.41 5.33514 22.41 8.84514V13.2551" stroke="#171717" stroke-width="1.5" stroke-linecap="round" stroke-linejoin="round"/>
<path opacity="0.4" d="M18.4 22.9452C20.6092 22.9452 22.4 21.1543 22.4 18.9452C22.4 16.7361 20.6092 14.9452 18.4 14.9452C16.1909 14.9452 14.4 16.7361 14.4 18.9452C14.4 21.1543 16.1909 22.9452 18.4 22.9452Z" stroke="#171717" stroke-width="1.5" stroke-miterlimit="10" stroke-linecap="round" stroke-linejoin="round"/>
<g opacity="0.4">
<path d="M19.4698 20.0652L17.3599 17.9452" stroke="#171717" stroke-width="1.5" stroke-miterlimit="10" stroke-linecap="round" stroke-linejoin="round"/>
<path d="M19.4501 17.9752L17.3301 20.0852" stroke="#171717" stroke-width="1.5" stroke-miterlimit="10" stroke-linecap="round" stroke-linejoin="round"/>
</g>
<path opacity="0.4" d="M6.40002 16.9452H10.4" stroke="#171717" stroke-width="1.5" stroke-miterlimit="10" stroke-linecap="round" stroke-linejoin="round"/>
</svg>
