<svg width="61" height="43" viewBox="0 0 61 43" fill="none" xmlns="http://www.w3.org/2000/svg">
    <path fill-rule="evenodd" clip-rule="evenodd" d="M0.775116 11.5481C0.762012 11.7785 0.755371 12.0107 0.755371 12.2444V20.7925H19.7183V11.5481H0.775116ZM0.940623 10.1258H19.7183V0.170288H12.8295C6.88392 0.170288 1.94207 4.46771 0.940623 10.1258ZM21.2986 0.170288V10.1258V11.5481V20.7925V22.2147V31.4592V32.8814V42.837H39.4714V32.8814V31.4592V22.2147V20.7925V11.5481V10.1258H41.0517H59.8294C58.8279 4.46771 53.8861 0.170288 47.9405 0.170288H21.2986ZM59.9949 11.5481H41.0517V20.7925H60.0146L60.0146 12.2444C60.0146 12.0107 60.008 11.7785 59.9949 11.5481ZM60.0146 22.2147H41.0517V31.4592H59.9949C60.008 31.2287 60.0146 30.9966 60.0146 30.7628L60.0146 22.2147ZM59.8294 32.8814H41.0517V42.837H47.9405C53.8861 42.837 58.8279 38.5395 59.8294 32.8814ZM19.7183 42.837V32.8814H0.940621C1.94206 38.5395 6.88392 42.837 12.8295 42.837H19.7183ZM0.775116 31.4592H19.7183V22.2147H0.755371V30.7628C0.755371 30.9966 0.762012 31.2287 0.775116 31.4592Z" fill="url(#paint0_linear_209_1370)"/>
    <defs>
        <linearGradient id="paint0_linear_209_1370" x1="30.385" y1="0.170288" x2="30.385" y2="42.837" gradientUnits="userSpaceOnUse">
            <stop stop-color="#FBBD5E"/>
            <stop offset="1" stop-color="#EB7B23"/>
        </linearGradient>
    </defs>
</svg>
