<svg width="25" height="25" viewBox="0 0 25 25" fill="none" xmlns="http://www.w3.org/2000/svg">
<path d="M19.5 15.9152C17.29 15.9152 15.5 17.7052 15.5 19.9152C15.5 20.6652 15.71 21.3752 16.08 21.9752C16.77 23.1352 18.04 23.9152 19.5 23.9152C20.96 23.9152 22.23 23.1352 22.92 21.9752C23.29 21.3752 23.5 20.6652 23.5 19.9152C23.5 17.7052 21.71 15.9152 19.5 15.9152ZM21.57 19.4852L19.44 21.4552C19.3 21.5852 19.11 21.6552 18.93 21.6552C18.74 21.6552 18.55 21.5852 18.4 21.4352L17.41 20.4452C17.12 20.1552 17.12 19.6752 17.41 19.3852C17.7 19.0952 18.18 19.0952 18.47 19.3852L18.95 19.8652L20.55 18.3852C20.85 18.1052 21.33 18.1252 21.61 18.4252C21.89 18.7252 21.87 19.1952 21.57 19.4852Z" fill="#171717"/>
<path d="M22.5 8.46519V8.91519C22.5 9.46519 22.05 9.91519 21.5 9.91519L3.5 9.91519C2.95 9.91519 2.5 9.46519 2.5 8.91519V8.45519C2.5 6.16519 4.35 4.31519 6.64 4.31519L18.35 4.31519C20.64 4.31519 22.5 6.17519 22.5 8.46519Z" fill="#171717"/>
<path d="M2.5 12.4152L2.5 17.3752C2.5 19.6652 4.35 21.5152 6.64 21.5152H12.9C13.48 21.5152 13.98 21.0252 13.93 20.4452C13.79 18.9152 14.28 17.2552 15.64 15.9352C16.2 15.3852 16.89 14.9652 17.64 14.7252C18.89 14.3252 20.1 14.3752 21.17 14.7352C21.82 14.9552 22.5 14.4852 22.5 13.7952V12.4052C22.5 11.8552 22.05 11.4052 21.5 11.4052L3.5 11.4052C2.95 11.4152 2.5 11.8652 2.5 12.4152ZM8.5 18.1652H6.5C6.09 18.1652 5.75 17.8252 5.75 17.4152C5.75 17.0052 6.09 16.6652 6.5 16.6652H8.5C8.91 16.6652 9.25 17.0052 9.25 17.4152C9.25 17.8252 8.91 18.1652 8.5 18.1652Z" fill="#171717"/>
</svg>
