<svg width="25" height="25" viewBox="0 0 25 25" fill="none" xmlns="http://www.w3.org/2000/svg">
<path d="M16.08 12.9151C16.08 14.8951 14.48 16.4951 12.5 16.4951C10.52 16.4951 8.92 14.8951 8.92 12.9151C8.92 10.9351 10.52 9.33514 12.5 9.33514C14.48 9.33514 16.08 10.9351 16.08 12.9151Z" stroke="#171717" stroke-width="1.5" stroke-linecap="round" stroke-linejoin="round"/>
<path d="M12.5 21.1851C16.03 21.1851 19.32 19.1051 21.61 15.5051C22.51 14.0951 22.51 11.7251 21.61 10.3151C19.32 6.71513 16.03 4.63513 12.5 4.63513C8.97 4.63513 5.68 6.71513 3.39 10.3151C2.49 11.7251 2.49 14.0951 3.39 15.5051C5.68 19.1051 8.97 21.1851 12.5 21.1851Z" stroke="#171717" stroke-width="1.5" stroke-linecap="round" stroke-linejoin="round"/>
</svg>
