<svg width="40" height="41" viewBox="0 0 40 41" fill="none" xmlns="http://www.w3.org/2000/svg">
    <path d="M20.0335 5.58057C14.5168 5.58057 10.0335 10.0639 10.0335 15.5806V20.3972C10.0335 21.4139 9.60015 22.9639 9.08348 23.8306L7.16681 27.0139C5.98348 28.9806 6.80015 31.1639 8.96681 31.8972C16.1501 34.2972 23.9001 34.2972 31.0835 31.8972C33.1001 31.2306 33.9835 28.8472 32.8835 27.0139L30.9668 23.8306C30.4668 22.9639 30.0335 21.4139 30.0335 20.3972V15.5806C30.0335 10.0806 25.5335 5.58057 20.0335 5.58057Z" stroke="#171717" stroke-width="1.5" stroke-miterlimit="10" stroke-linecap="round"/>
    <path d="M23.1169 6.06387C22.6002 5.91387 22.0669 5.7972 21.5169 5.73053C19.9169 5.53053 18.3835 5.6472 16.9502 6.06387C17.4335 4.83053 18.6335 3.96387 20.0335 3.96387C21.4335 3.96387 22.6335 4.83053 23.1169 6.06387Z" stroke="#171717" stroke-width="1.5" stroke-miterlimit="10" stroke-linecap="round" stroke-linejoin="round"/>
    <path d="M25.0332 32.4971C25.0332 35.2471 22.7832 37.4971 20.0332 37.4971C18.6665 37.4971 17.3999 36.9304 16.4999 36.0304C15.5999 35.1304 15.0332 33.8637 15.0332 32.4971" stroke="#171717" stroke-width="1.5" stroke-miterlimit="10"/>
</svg>