<svg width="41" height="40" viewBox="0 0 41 40" fill="none" xmlns="http://www.w3.org/2000/svg">
    <path d="M3.83325 21.0166H32.1666" stroke="#171717" stroke-width="1.5" stroke-miterlimit="10" stroke-linecap="round" stroke-linejoin="round"/>
    <path d="M32.1666 17.1332V29.0498C32.1166 33.7998 30.8165 34.9998 25.8665 34.9998H10.1333C5.09997 34.9998 3.83325 33.7498 3.83325 28.7832V17.1332C3.83325 12.6332 4.88325 11.1832 8.83325 10.9498C9.23325 10.9332 9.66663 10.9165 10.1333 10.9165H25.8665C30.8999 10.9165 32.1666 12.1665 32.1666 17.1332Z" stroke="#171717" stroke-width="1.5" stroke-linecap="round" stroke-linejoin="round"/>
    <path d="M37.1666 11.2167V22.8667C37.1666 27.3667 36.1166 28.8167 32.1666 29.05V17.1333C32.1666 12.1667 30.8999 10.9167 25.8665 10.9167H10.1333C9.66663 10.9167 9.23325 10.9333 8.83325 10.95C8.88325 6.2 10.1833 5 15.1333 5H30.8665C35.8999 5 37.1666 6.25 37.1666 11.2167Z" stroke="#171717" stroke-width="1.5" stroke-linecap="round" stroke-linejoin="round"/>
    <path d="M9.25 29.6833H12.1166" stroke="#171717" stroke-width="1.5" stroke-miterlimit="10" stroke-linecap="round" stroke-linejoin="round"/>
    <path d="M15.6833 29.6833H21.4167" stroke="#171717" stroke-width="1.5" stroke-miterlimit="10" stroke-linecap="round" stroke-linejoin="round"/>
</svg>