<svg width="86" height="85" viewBox="0 0 86 85" fill="none" xmlns="http://www.w3.org/2000/svg">
    <path d="M19.9792 69.0625C19.9792 69.0625 32.3751 63.75 35.9167 60.2083C39.4584 56.6667 28.8334 56.6667 28.8334 38.9583C28.8334 21.25 43.0001 21.25 43.0001 21.25C43.0001 21.25 57.1668 21.25 57.1668 38.9583C57.1668 56.6667 46.5418 56.6667 50.0834 60.2083C53.6251 63.75 66.0209 69.0625 66.0209 69.0625" stroke="black" stroke-linecap="round"/>
    <path fill-rule="evenodd" clip-rule="evenodd" d="M42.9999 77.9168C62.56 77.9168 78.4166 62.0602 78.4166 42.5002C78.4166 22.9401 62.56 7.0835 42.9999 7.0835C23.4398 7.0835 7.58325 22.9401 7.58325 42.5002C7.58325 62.0602 23.4398 77.9168 42.9999 77.9168Z" stroke="black"/>
</svg>