<svg width="41" height="40" viewBox="0 0 41 40" fill="none" xmlns="http://www.w3.org/2000/svg">
    <path d="M16.3333 22.9166C16.3333 24.5332 17.5833 25.8332 19.1166 25.8332H22.2499C23.5832 25.8332 24.6666 24.6999 24.6666 23.2832C24.6666 21.7666 23.9999 21.2166 23.0166 20.8666L17.9999 19.1166C17.0166 18.7666 16.3499 18.2332 16.3499 16.6999C16.3499 15.2999 17.4332 14.1499 18.7666 14.1499H21.8999C23.4332 14.1499 24.6833 15.4499 24.6833 17.0666" stroke="#171717" stroke-width="1.5" stroke-linecap="round" stroke-linejoin="round"/>
    <path d="M20.5 12.5V27.5" stroke="#171717" stroke-width="1.5" stroke-linecap="round" stroke-linejoin="round"/>
    <path d="M37.1666 19.9999C37.1666 29.1999 29.6999 36.6666 20.4999 36.6666C11.2999 36.6666 3.83325 29.1999 3.83325 19.9999C3.83325 10.7999 11.2999 3.33325 20.4999 3.33325" stroke="#171717" stroke-width="1.5" stroke-linecap="round" stroke-linejoin="round"/>
    <path d="M37.1667 9.99992V3.33325H30.5" stroke="#171717" stroke-width="1.5" stroke-linecap="round" stroke-linejoin="round"/>
    <path d="M28.8333 11.6666L37.1666 3.33325" stroke="#171717" stroke-width="1.5" stroke-linecap="round" stroke-linejoin="round"/>
</svg>